<?xml version="1.0" encoding="utf-8"?>
<!-- Generator: Adobe Illustrator 24.0.0, SVG Export Plug-In . SVG Version: 6.00 Build 0)  -->
<svg version="1.1" id="Calque_1" xmlns="http://www.w3.org/2000/svg" xmlns:xlink="http://www.w3.org/1999/xlink" x="0px" y="0px"
	 viewBox="0 0 156.1 42.7" style="enable-background:new 0 0 156.1 42.7;" xml:space="preserve">
<style type="text/css">
	.st0{fill:#FFFFFF;stroke:#FFFFFF;stroke-miterlimit:10;}
	.st1{fill:#FFFFFF;}
</style>
<g>
	<path class="st0" d="M27.1,29.8v-0.1c0,0,0-0.1,0-0.2c0,0,0-0.1,0.1-0.3c0-0.2,0.1-0.3,0.2-0.5s0.1-0.4,0.2-0.5
		c0-0.2,0.1-0.3,0.1-0.3c0.5-1.5,0.9-2.9,1.3-4.1s0.7-2.4,1-3.6s0.7-2.4,1-3.6s0.7-2.6,1.1-4.2v-0.5c-0.5-0.2-1-0.1-1.6,0
		c-0.6,0.2-1.1,0.5-1.7,1s-1.2,1-1.8,1.6c-0.6,0.6-1.2,1.3-1.7,2c-0.6,0.7-1.1,1.4-1.6,2c-0.5,0.7-1,1.3-1.5,1.8
		c-0.4,0.6-0.8,1-1.2,1.4s-0.6,0.6-0.9,0.6c-0.1,0-0.3,0-0.5-0.1S19.3,22,19.3,22v-1.7c0-0.2,0.1-0.5,0.2-0.9s0.2-0.8,0.3-1.3
		c0.1-0.5,0.2-1,0.3-1.6c0.1-0.5,0.2-1.1,0.3-1.6c0.1-0.5,0.2-0.9,0.3-1.3s0.1-0.7,0.2-0.9c0.1-0.4,0.2-0.8,0.2-1.1
		c0.1-0.4,0.1-0.7,0-1.1c-0.5-0.2-1,0-1.6,0.4s-1.1,1-1.7,1.9c-0.6,0.8-1.2,1.8-1.8,2.8c-0.6,1.1-1.2,2.2-1.7,3.3
		c-0.6,1.1-1.1,2.3-1.6,3.4s-1,2.1-1.4,2.9c-0.4,0.9-0.8,1.5-1.1,2s-0.6,0.7-0.8,0.7c-0.2-0.1-0.3-0.3-0.3-0.8
		c0.1-0.5,0.2-1.1,0.5-1.8s0.6-1.6,1-2.5s0.9-1.9,1.4-2.9s1-2,1.5-3s1-1.9,1.5-2.8c0.5-0.8,0.9-1.6,1.2-2.2c0.4-0.6,0.6-1.1,0.8-1.4
		c0.3,0.1,0.7,0.2,0.9,0.1s0.5-0.1,0.7-0.3s0.5-0.3,0.7-0.5s0.5-0.4,0.8-0.5c0.6-0.4,1.1-0.5,1.4-0.5s0.6,0.2,0.8,0.5
		c0.2,0.3,0.2,0.7,0.2,1.3s0,1.1-0.1,1.8c-0.1,0.6-0.2,1.3-0.3,1.9c-0.1,0.7-0.3,1.3-0.4,1.8c-0.1,0.6-0.2,1-0.3,1.4
		c-0.1,0.4-0.1,0.6-0.1,0.7c0.1,0.1,0.2,0.1,0.3,0c0.1-0.1,0.2-0.2,0.2-0.2c0-0.1,0.2-0.2,0.4-0.5c0.2-0.2,0.4-0.5,0.7-0.8
		c0.2-0.3,0.5-0.6,0.8-1c0.3-0.3,0.6-0.7,0.8-1c0.3-0.3,0.5-0.6,0.7-0.8s0.3-0.4,0.4-0.5c1.4-1.1,2.7-2,3.7-2.5
		c1-0.6,1.8-0.9,2.4-0.9c0.6-0.1,1.1,0.1,1.4,0.4c0.3,0.4,0.4,0.9,0.4,1.6c0,0.7-0.1,1.5-0.3,2.4c-0.2,0.9-0.5,1.9-0.9,3
		c0,0.1-0.1,0.5-0.3,0.9s-0.3,1-0.5,1.7s-0.4,1.3-0.6,2s-0.4,1.4-0.6,2s-0.4,1.2-0.5,1.7s-0.2,0.8-0.3,0.9c0,0,0,0.1,0,0.3
		c0,0.2-0.1,0.4-0.2,0.7c-0.1,0.3-0.2,0.6-0.3,0.9c-0.1,0.3-0.2,0.6-0.4,0.8c-0.1,0.2-0.3,0.4-0.5,0.6s-0.4,0.2-0.6,0.1
		c0,0-0.1,0-0.1-0.1C27.2,29.9,27.2,29.8,27.1,29.8z"/>
	<path class="st0" d="M35.5,27.8c-0.7-0.3-1.1-0.7-1.3-1.3c-0.2-0.6-0.2-1.2,0-1.9c0.2-0.7,0.5-1.4,0.9-2.1s0.9-1.4,1.5-2
		s1.1-1.1,1.7-1.6c0.6-0.4,1-0.7,1.4-0.7c1-0.1,1.8-0.1,2.4,0.2c0.6,0.3,1,0.7,1.2,1.2s0.3,1.1,0.2,1.8c-0.1,0.7-0.3,1.4-0.7,2.1
		c-0.3,0.7-0.8,1.4-1.3,2s-1.1,1.2-1.8,1.6s-1.3,0.7-2.1,0.9C37,28.2,36.2,28.1,35.5,27.8z M35.2,26.4c0.1,0.5,0.4,0.8,0.8,0.9
		c0.4,0.1,0.9,0,1.5-0.3s1.2-0.7,1.8-1.2s1.2-1.1,1.7-1.7s1-1.2,1.3-1.8s0.5-1.2,0.5-1.6c0-0.5-0.2-0.8-0.7-1.1
		c-0.4-0.2-1.2-0.3-2.2-0.1c-0.2,0.2-0.5,0.5-0.9,0.8s-0.7,0.6-1.1,1c-0.4,0.4-0.8,0.8-1.2,1.2c-0.4,0.4-0.7,0.9-1,1.3
		s-0.5,0.9-0.6,1.4C35.1,25.5,35.1,26,35.2,26.4z"/>
	<path class="st0" d="M54.9,27.8c-0.4-0.2-0.8-0.4-1.1-0.7c-0.3-0.3-0.5-0.6-0.6-1s-0.3-0.8-0.3-1.2c-0.1-0.4-0.2-0.8-0.2-1.3
		c-0.1-0.1-0.4,0-0.8,0.3c-0.4,0.3-0.8,0.6-1.3,1.1s-1,0.9-1.6,1.3c-0.6,0.5-1.1,0.8-1.7,1c-0.5,0.2-1,0.3-1.5,0.1
		c-0.4-0.1-0.8-0.6-1-1.3c-0.1-0.2-0.1-0.6,0.1-1.1c0.1-0.5,0.4-1,0.6-1.6c0.3-0.6,0.6-1.1,1-1.8c0.4-0.6,0.7-1.2,1.1-1.7
		s0.7-1,1-1.3c0.3-0.4,0.5-0.6,0.7-0.7c0.4,0.2,0.6,0.5,0.5,0.8c0,0.4-0.2,0.8-0.4,1.3s-0.6,1-1,1.5s-0.8,1.1-1.1,1.6
		s-0.6,1.1-0.9,1.6c-0.2,0.5-0.3,0.9-0.2,1.3c0.4,0.1,0.8,0.1,1.4-0.2c0.5-0.3,1.1-0.7,1.7-1.3c0.6-0.5,1.3-1.2,1.9-1.9
		c0.7-0.7,1.3-1.4,1.8-2c0.6-0.7,1.1-1.2,1.5-1.7s0.7-0.8,0.9-1c0.3,0.2,0.5,0.4,0.5,0.8s-0.1,0.8-0.3,1.3s-0.4,1-0.7,1.6
		s-0.5,1.1-0.7,1.7c-0.2,0.5-0.3,1.1-0.3,1.6s0.1,0.9,0.4,1.3l0.8,1h2.5c0.1,0,0.1,0,0.1,0.1c-0.1,0.1-0.2,0.2-0.3,0.3
		c-0.1,0.1-0.3,0.2-0.4,0.3c-0.1,0.1-0.2,0.2-0.2,0.2c-0.4,0.1-0.8,0.1-1,0C55.6,28.1,55.2,28,54.9,27.8z"/>
	<path class="st0" d="M60.1,36.8c-0.5-0.5-0.8-1-0.8-1.7c-0.1-0.7,0-1.3,0.1-2s0.3-1.4,0.6-2.1s0.5-1.3,0.7-1.8
		c0.3-0.8,0.6-1.5,0.7-2c0.1-0.5,0.1-0.9,0-1.1c-0.1-0.3-0.2-0.4-0.4-0.5s-0.4-0.2-0.6-0.2c-0.2,0-0.4-0.1-0.7-0.1s-0.4-0.1-0.5-0.3
		c-0.1-0.1-0.2-0.4-0.2-0.7c0-0.3,0.1-0.7,0.3-1.3c0.1-0.2,0.2-0.4,0.5-0.8c0.2-0.3,0.5-0.7,0.9-1.1s0.8-0.8,1.2-1.3
		c0.4-0.4,0.9-0.8,1.4-1.2c0.5-0.4,0.9-0.7,1.4-0.9s0.9-0.4,1.3-0.5c0.4,0,0.8,0,1.1,0.2c0.3,0.2,0.5,0.6,0.7,1.1c0,0.1,0,0.3,0,0.5
		s-0.1,0.5-0.2,0.7c-0.1,0.3-0.1,0.5-0.2,0.7s-0.1,0.4-0.2,0.5c-0.2,0.5-0.5,1.1-1,1.8c-0.5,0.7-1.1,1.6-1.7,2.4
		c-0.6,0.9-1.2,1.8-1.9,2.8c-0.6,1-1.2,1.9-1.6,2.9c-0.4,0.9-0.7,1.8-0.8,2.7s0,1.6,0.4,2.2c0.1,0.1,0.4,0.1,0.8-0.2s1-0.7,1.6-1.3
		c0.6-0.5,1.3-1.1,2-1.7c0.7-0.6,1.4-1.2,2-1.6c0.6-0.5,1.2-0.8,1.7-1s0.8-0.1,1,0.2v0.1v0.1c-0.2,0.2-0.6,0.5-1.1,1s-1,1-1.7,1.5
		c-0.6,0.5-1.3,1.1-1.9,1.7c-0.7,0.6-1.3,1-1.9,1.4c-0.6,0.4-1.2,0.7-1.7,0.8C60.7,37.1,60.3,37.1,60.1,36.8z M60.4,23.6
		c0,0,0,0.1,0,0.2s0,0.2,0,0.3c0,0.1,0,0.2,0,0.3c0,0.1,0,0.2,0,0.2c0.4,0.1,0.9,0.1,1.3-0.1c0.4-0.2,0.8-0.5,1.3-1
		c0.4-0.4,0.8-0.9,1.2-1.4c0.4-0.5,0.7-1,1.1-1.4c0.3-0.4,0.6-0.8,0.9-1s0.5-0.3,0.7-0.2c0.1-0.6,0.1-1-0.1-1.1s-0.6-0.1-1,0.1
		c-0.5,0.2-1,0.5-1.6,1c-0.6,0.4-1.1,0.9-1.7,1.4c-0.5,0.5-1,1-1.4,1.4C60.7,23,60.4,23.4,60.4,23.6z"/>
	<path class="st0" d="M69.8,27.5c-0.4-0.3-0.6-0.8-0.7-1.5c0-0.6,0-1.4,0.3-2.2c0.2-0.8,0.6-1.7,1-2.5c0.4-0.9,0.9-1.7,1.5-2.5
		s1.2-1.5,1.9-2.2c0.7-0.6,1.4-1.1,2-1.4s1.3-0.4,2-0.3c0.6,0.1,1.2,0.5,1.8,1.1c0.3,0.4,0.5,0.8,0.6,1.3c0.1,0.4,0.1,0.9,0,1.3
		s-0.2,0.9-0.4,1.3c-0.2,0.5-0.4,0.9-0.5,1.4c-0.2,0.5-0.3,0.9-0.4,1.4s-0.1,1-0.1,1.5c0.1,0.6,0.4,1,0.8,1.1
		c0.5,0.1,1.1,0.1,1.7-0.1c0.7-0.2,1.4-0.5,2.1-0.9s1.4-0.8,2.1-1.2c0.6-0.4,1.4-0.9,2.2-1.5c0.5-0.1,0.7-0.1,0.8,0.1
		c0.1,0.2,0,0.4-0.3,0.7c-0.2,0.3-0.6,0.7-1.1,1c-0.5,0.4-1,0.8-1.6,1.1c-0.6,0.4-1.3,0.7-2,1s-1.4,0.5-2,0.6
		c-0.7,0.1-1.3,0.1-1.9,0s-1.1-0.4-1.5-0.9c-0.2-0.2-0.3-0.4-0.4-0.6s-0.2-0.4-0.4-0.5c-0.2,0.2-0.5,0.5-0.9,0.9
		c-0.3,0.4-0.7,0.7-1.1,1.1s-0.8,0.7-1.3,1.1c-0.5,0.3-0.9,0.6-1.4,0.7c-0.5,0.2-1,0.2-1.5,0.2S70.2,27.9,69.8,27.5z M70,26.7
		c0.1,0.5,0.5,0.8,1,0.7c0.5,0,1.1-0.3,1.8-0.8c0.7-0.5,1.4-1.1,2.1-1.9s1.4-1.7,2-2.7s1-2,1.3-3.1s0.4-2.2,0.2-3.2
		c-0.4-0.3-0.9-0.3-1.5,0s-1.2,0.8-1.9,1.4c-0.7,0.7-1.3,1.4-2,2.3s-1.2,1.8-1.7,2.7s-0.9,1.8-1.1,2.6C70,25.6,69.9,26.2,70,26.7z"
		/>
	<path class="st0" d="M86.5,27.8c0,0,0-0.2,0-0.6s0.1-0.8,0.2-1.4s0.2-1.2,0.3-1.9c0.1-0.7,0.3-1.3,0.4-1.9s0.3-1.2,0.5-1.6
		s0.3-0.8,0.5-1c0.1-0.1,0.2-0.1,0.3,0c0.1,0.1,0.2,0.2,0.3,0.4c0.1,0.2,0.2,0.3,0.3,0.4c0.1,0.1,0.2,0.1,0.4,0
		c0.5-0.6,1-1.3,1.5-1.8c0.6-0.6,1.2-1.1,1.9-1.5c0.1,0,0.2-0.1,0.5-0.2s0.6-0.2,1-0.3c0.4-0.1,0.8-0.2,1.2-0.3s0.8-0.1,1-0.1
		c0.3,0,0.5,0.1,0.6,0.2s0.1,0.4-0.2,0.7c-1,0-1.9,0.3-2.8,0.9s-1.7,1.3-2.4,2.1c-0.7,0.8-1.4,1.7-2,2.7s-1.1,1.9-1.6,2.7
		c-0.4,0.8-0.8,1.5-1.1,2.1c-0.3,0.5-0.5,0.8-0.6,0.8c0,0-0.1,0-0.2-0.1C86.7,27.9,86.6,27.9,86.5,27.8z"/>
	<path class="st0" d="M95.6,36.8c-0.1-0.9-0.1-1.9,0.1-2.8c0.2-1,0.6-1.9,0.9-2.8c0.4-0.9,0.8-1.9,1.2-2.8c0.4-0.9,0.7-1.8,0.8-2.7
		c0,0,0.1-0.1,0.2-0.3c0.1-0.2,0.3-0.3,0.5-0.5s0.3-0.4,0.5-0.5c0.1-0.2,0.2-0.3,0.2-0.3c0.3-0.6,0.5-1.1,0.8-1.6s0.5-1,0.6-1.4
		c0.1-0.5,0.2-0.9,0.2-1.4s-0.2-0.9-0.5-1.5v-0.1V18c0.5-0.6,1-1.1,1.7-1.5c0.6-0.4,1.3-0.7,2-1c0.7-0.2,1.4-0.4,2.2-0.5
		c0.8-0.1,1.5-0.1,2.3,0c0.6,0.5,1,1.1,1.2,1.8s0.2,1.4,0,2.1s-0.4,1.4-0.9,2.2c-0.4,0.7-0.9,1.4-1.5,2c-0.5,0.6-1.1,1.2-1.7,1.7
		s-1.2,0.9-1.7,1.1s-0.8,0.4-1.1,0.5c-0.2,0.1-0.4,0.1-0.7,0.1c-0.2,0-0.5,0-0.8,0s-0.8,0.1-1.4,0.2c-0.3,0-0.5,0.2-0.7,0.4
		c-0.2,0.2-0.3,0.4-0.5,0.7c-0.1,0.3-0.2,0.5-0.3,0.8c-0.1,0.3-0.1,0.5-0.2,0.7c-0.3,0.7-0.6,1.4-0.8,2c-0.2,0.6-0.5,1.2-0.7,1.8
		c-0.2,0.6-0.4,1.2-0.7,1.9c-0.2,0.6-0.4,1.3-0.7,2.1c0,0.1-0.1,0.2-0.2,0.2c-0.1,0.1-0.2,0.1-0.3,0.1c-0.1,0-0.2,0-0.2,0
		C95.7,37,95.6,36.9,95.6,36.8z M101.2,25.3c0.8,0.1,1.5,0.1,2.2-0.1s1.4-0.6,2-1.1s1.2-1.1,1.7-1.8c0.5-0.7,0.9-1.4,1.3-2.2
		s0.6-1.5,0.8-2.3c0.2-0.8,0.2-1.5,0.1-2.1c-0.2-0.2-0.5-0.3-0.8-0.3s-0.6,0-0.9,0c-0.9,0.1-1.6,0.3-2.1,0.7
		c-0.5,0.3-0.9,0.8-1.3,1.3c-0.3,0.5-0.6,1.1-0.8,1.8c-0.2,0.7-0.5,1.4-0.8,2.2c-0.1,0.1-0.2,0.3-0.3,0.6s-0.3,0.6-0.4,0.9
		s-0.3,0.6-0.4,0.9s-0.2,0.5-0.3,0.6L101.2,25.3L101.2,25.3z"/>
	<path class="st0" d="M113.3,27.8c-0.7-0.3-1.1-0.7-1.3-1.3c-0.2-0.6-0.2-1.2,0-1.9c0.2-0.7,0.5-1.4,0.9-2.1s0.9-1.4,1.5-2
		s1.1-1.1,1.7-1.6c0.6-0.4,1-0.7,1.4-0.7c1-0.1,1.8-0.1,2.4,0.2c0.6,0.3,1,0.7,1.2,1.2s0.3,1.1,0.2,1.8c-0.1,0.7-0.3,1.4-0.7,2.1
		c-0.3,0.7-0.8,1.4-1.3,2s-1.1,1.2-1.8,1.6c-0.7,0.4-1.3,0.7-2.1,0.9C114.7,28.2,114,28.1,113.3,27.8z M113,26.4
		c0.1,0.5,0.4,0.8,0.8,0.9s0.9,0,1.5-0.3s1.2-0.7,1.8-1.2c0.6-0.5,1.2-1.1,1.7-1.7s1-1.2,1.3-1.8s0.5-1.2,0.5-1.6
		c0-0.5-0.2-0.8-0.7-1.1c-0.4-0.2-1.2-0.3-2.2-0.1c-0.2,0.2-0.5,0.5-0.9,0.8s-0.7,0.6-1.1,1s-0.8,0.8-1.2,1.2
		c-0.4,0.4-0.7,0.9-1,1.3s-0.5,0.9-0.6,1.4C112.9,25.5,112.9,26,113,26.4z"/>
	<path class="st0" d="M122.4,27.5c-0.1-0.2-0.1-0.5,0.1-0.8s0.5-0.6,0.9-1c0.4-0.3,0.9-0.7,1.4-1.1s1-0.7,1.5-1.1
		c0.4-0.4,0.8-0.7,1.1-1.1c0.3-0.3,0.4-0.6,0.3-0.9c0-0.1-0.1-0.3-0.1-0.6c-0.1-0.3-0.2-0.6-0.3-1c-0.1-0.3-0.2-0.7-0.3-1
		c-0.1-0.3-0.1-0.5-0.1-0.6V18c0.2-0.2,0.4-0.1,0.6,0.1c0.2,0.3,0.4,0.6,0.6,1c0.2,0.4,0.4,0.8,0.5,1.2s0.3,0.6,0.5,0.7
		c0.3-0.2,0.6-0.4,1-0.7c0.3-0.3,0.7-0.6,1-0.8c0.3-0.3,0.6-0.6,0.9-0.8c0.3-0.3,0.5-0.5,0.7-0.7c0.3-0.2,0.6-0.3,0.7-0.2
		c0.1,0,0.2,0.1,0.2,0.3c0,0.1,0,0.3-0.1,0.5s-0.2,0.4-0.3,0.6s-0.3,0.5-0.5,0.8c-0.9,0.8-1.5,1.5-2,2c-0.5,0.6-0.8,1-1,1.4
		s-0.2,0.7-0.2,0.9c0,0.2,0.2,0.4,0.3,0.6s0.4,0.3,0.6,0.4c0.2,0.1,0.4,0.2,0.6,0.4s0.3,0.3,0.3,0.5s0,0.5-0.2,0.8
		c-0.4,0.1-0.8,0.1-1-0.1s-0.5-0.4-0.6-0.7c-0.2-0.3-0.3-0.6-0.4-0.9c-0.1-0.3-0.2-0.6-0.4-0.9c-0.2-0.2-0.4-0.4-0.6-0.5
		c-0.3-0.1-0.6,0-1.1,0.2c-0.4,0.2-1,0.7-1.7,1.3S124,27,123,28.1c0,0-0.1-0.1-0.3-0.3C122.6,27.7,122.5,27.6,122.4,27.5z"/>
</g>
<g>
	<path class="st1" d="M145.4,12.9L145.4,12.9l-5.7-1.2L138.5,6l-1.2,5.7l-5.7,1.2l5.7,1.2l1.2,5.7l1.2-5.7L145.4,12.9z"/>
</g>
</svg>
